<?xml version="1.0" standalone="no"?>
<!DOCTYPE svg PUBLIC "-//W3C//DTD SVG 20010904//EN"
 "http://www.w3.org/TR/2001/REC-SVG-20010904/DTD/svg10.dtd">
<svg version="1.0" xmlns="http://www.w3.org/2000/svg"
 width="40.000000pt" height="40.000000pt" viewBox="0 0 40.000000 40.000000"
 preserveAspectRatio="xMidYMid meet">
<metadata>
Created by potrace 1.16, written by Peter Selinger 2001-2019
</metadata>
<g transform="translate(0.000000,40.000000) scale(0.100000,-0.100000)"
fill="#000000" stroke="none">
<path d="M0 200 l0 -200 200 0 200 0 0 200 0 200 -200 0 -200 0 0 -200z m290
110 c0 -100 18 -106 23 -7 1 39 4 -5 5 -99 2 -148 4 -173 18 -178 9 -4 23 -1
30 5 16 13 19 59 4 59 -5 0 -10 -11 -10 -25 0 -16 -6 -25 -15 -25 -12 0 -15
13 -15 60 0 47 3 60 15 60 8 0 15 -9 15 -20 0 -25 17 -26 23 -2 3 9 5 -9 6
-40 1 -57 -14 -88 -43 -88 -28 0 -36 26 -36 112 0 52 -4 88 -10 88 -13 0 -13
-140 0 -174 l10 -26 -135 0 c-108 0 -137 3 -149 16 -13 13 -16 45 -16 190 l0
174 140 0 140 0 0 -80z"/>
<path d="M36 364 c-9 -8 -16 -18 -16 -22 1 -39 63 -42 68 -3 6 37 -26 52 -52
25z m42 -21 c-5 -26 -38 -29 -38 -4 0 15 6 21 21 21 14 0 19 -5 17 -17z"/>
<path d="M110 345 l0 -35 83 0 83 0 2 35 c2 26 -1 35 -13 35 -8 0 -15 -4 -15
-10 0 -5 -21 -10 -46 -10 -27 0 -43 4 -39 10 4 6 -7 10 -24 10 -29 0 -31 -3
-31 -35z m65 -15 c3 -5 -1 -10 -9 -10 -9 0 -16 5 -16 10 0 6 4 10 9 10 6 0 13
-4 16 -10z"/>
<path d="M93 283 c37 -2 96 -2 130 0 34 2 4 3 -68 3 -72 0 -99 -1 -62 -3z"/>
<path d="M73 263 c15 -2 39 -2 55 0 15 2 2 4 -28 4 -30 0 -43 -2 -27 -4z"/>
<path d="M190 211 c0 -34 4 -61 10 -61 6 0 10 24 10 54 0 30 -4 58 -10 61 -6
4 -10 -17 -10 -54z"/>
<path d="M238 263 c6 -2 18 -2 25 0 6 3 1 5 -13 5 -14 0 -19 -2 -12 -5z"/>
<path d="M30 240 c0 -6 30 -10 69 -10 39 0 73 5 76 10 4 6 -22 10 -69 10 -44
0 -76 -4 -76 -10z"/>
<path d="M225 240 c3 -5 15 -10 25 -10 10 0 22 5 25 10 4 6 -7 10 -25 10 -18
0 -29 -4 -25 -10z"/>
<path d="M22 183 c3 -36 5 -38 38 -38 33 0 35 2 38 38 l3 37 -41 0 -41 0 3
-37z m58 2 c0 -18 -5 -25 -20 -25 -15 0 -20 7 -20 25 0 18 5 25 20 25 15 0 20
-7 20 -25z"/>
<path d="M110 180 c0 -39 1 -40 35 -40 34 0 35 1 35 40 0 39 -1 40 -35 40 -34
0 -35 -1 -35 -40z m60 5 c0 -20 -5 -25 -25 -25 -20 0 -25 5 -25 25 0 20 5 25
25 25 20 0 25 -5 25 -25z"/>
<path d="M233 213 c9 -2 25 -2 35 0 9 3 1 5 -18 5 -19 0 -27 -2 -17 -5z"/>
<path d="M233 193 c9 -2 25 -2 35 0 9 3 1 5 -18 5 -19 0 -27 -2 -17 -5z"/>
<path d="M225 170 c3 -5 15 -10 25 -10 10 0 22 5 25 10 4 6 -7 10 -25 10 -18
0 -29 -4 -25 -10z"/>
<path d="M233 143 c9 -2 25 -2 35 0 9 3 1 5 -18 5 -19 0 -27 -2 -17 -5z"/>
<path d="M57 123 c18 -2 50 -2 70 0 21 2 7 4 -32 4 -38 0 -55 -2 -38 -4z"/>
<path d="M170 75 l0 -55 55 0 55 0 0 55 0 55 -55 0 -55 0 0 -55z m100 5 l0
-40 -45 0 c-44 0 -45 0 -45 33 0 43 5 47 52 47 38 0 38 0 38 -40z"/>
<path d="M30 100 c0 -5 9 -10 20 -10 11 0 20 5 20 10 0 6 -9 10 -20 10 -11 0
-20 -4 -20 -10z"/>
<path d="M95 100 c3 -5 17 -10 31 -10 13 0 24 5 24 10 0 6 -14 10 -31 10 -17
0 -28 -4 -24 -10z"/>
<path d="M57 73 c18 -2 50 -2 70 0 21 2 7 4 -32 4 -38 0 -55 -2 -38 -4z"/>
<path d="M53 53 c15 -2 37 -2 50 0 12 2 0 4 -28 4 -27 0 -38 -2 -22 -4z"/>
</g>
</svg>
